<?xml version="1.0" encoding="UTF-8"?>
<svg width="36px" height="36px" viewBox="0 0 36 36" version="1.1" xmlns="http://www.w3.org/2000/svg" xmlns:xlink="http://www.w3.org/1999/xlink">
    <title>E72E8025-D92D-4A1C-AA4A-84608A7A3125</title>
    <defs>
        <linearGradient x1="15.1785331%" y1="14.2914202%" x2="86.0935901%" y2="85.1283985%" id="linearGradient-1">
            <stop stop-color="#FFFFFF" stop-opacity="0.598175262" offset="0%"></stop>
            <stop stop-color="#FFFFFF" offset="100%"></stop>
        </linearGradient>
    </defs>
    <g id="Page-1" stroke="none" stroke-width="1" fill="none" fill-rule="evenodd">
        <g id="Q-consultation-lite-banner---Main" transform="translate(-360.000000, -5.000000)">
            <g id="Group-10" transform="translate(360.000000, 5.000000)">
                <circle id="Oval" fill="#042B59" fill-rule="nonzero" cx="18" cy="18" r="18"></circle>
                <g id="Group-2" transform="translate(7.000000, 7.000000)" fill="url(#linearGradient-1)">
                    <path d="M11,0 C17.0751322,0 22,4.92486775 22,11 C22,17.0751322 17.0751322,22 11,22 C4.92486775,22 0,17.0751322 0,11 C0,4.92486775 4.92486775,0 11,0 Z M11,4.4 C7.35492065,4.4 4.4,7.35492065 4.4,11 C4.4,14.6450793 7.35492065,17.6 11,17.6 C12.3015732,17.6 13.5151485,17.2232363 14.5376144,16.5728205 L17.6375551,17.6051102 L16.6004563,14.4937919 C17.2338966,13.4805469 17.6,12.2830275 17.6,11 C17.6,7.35492065 14.6450793,4.4 11,4.4 Z M13.3782366,12.4309146 C14.1722814,12.4309146 14.9298068,12.7732709 15.4565363,13.3702345 L15.6444444,13.5831537 L15.5042334,13.8302873 C14.5841678,15.4519081 12.8582455,16.4592593 10.9999868,16.4592593 L10.7584111,16.4535788 C8.99317128,16.3705024 7.37580405,15.381404 6.4957666,13.8303138 L6.35555556,13.5831802 L6.54343729,13.3702345 C7.07016678,12.7732709 7.8276922,12.4309146 8.62173696,12.4309146 L13.3782366,12.4309146 Z M10.9999868,6.07037037 L11.1690095,6.0754489 C12.6226861,6.16305633 13.7746116,7.37316295 13.7746116,8.85310847 C13.7746116,10.389975 12.5323724,11.6358466 10.9999868,11.6358466 L10.8309641,11.630768 C9.37728747,11.5431606 8.22536199,10.333054 8.22536199,8.85310847 C8.22536199,7.31624197 9.46760115,6.07037037 10.9999868,6.07037037 Z" id="Combined-Shape"></path>
                </g>
            </g>
        </g>
    </g>
</svg>