<svg class="burger" width="20px" height="16px" viewBox="0 0 20 16" version="1.1" xmlns="http://www.w3.org/2000/svg" xmlns:xlink="http://www.w3.org/1999/xlink"><!-- Generator: sketchtool 62 (101010) - https://sketch.com --><title>F0FC4979-3002-4F4A-8EDC-A0A32DE59D9D</title><desc>Created with sketchtool.</desc><g id="Final-version" stroke="none" stroke-width="1" fill="none" fill-rule="evenodd"><g id="Blog-mobile" transform="translate(-280.000000, -22.000000)" fill="#FFFFFF" fill-rule="nonzero"><g id="header"><path d="M298.964844,24.2734375 C299.082031,24.2734375 299.192708,24.2539062 299.296875,24.2148438 C299.401042,24.1757812 299.492188,24.1171875 299.570312,24.0390625 C299.648438,23.9479167 299.707031,23.8535156 299.746094,23.7558594 C299.785156,23.6582031 299.804688,23.5442708 299.804688,23.4140625 C299.804688,23.296875 299.785156,23.1861979 299.746094,23.0820312 C299.707031,22.9778646 299.648438,22.8867188 299.570312,22.8085938 C299.492188,22.7304688 299.401042,22.671875 299.296875,22.6328125 C299.192708,22.59375 299.082031,22.5742188 298.964844,22.5742188 L298.964844,22.5742188 L281.132812,22.5742188 C281.015625,22.5742188 280.904948,22.59375 280.800781,22.6328125 C280.696615,22.671875 280.605469,22.7304688 280.527344,22.8085938 C280.449219,22.8867188 280.390625,22.9778646 280.351562,23.0820312 C280.3125,23.1861979 280.292969,23.296875 280.292969,23.4140625 C280.292969,23.5442708 280.3125,23.6582031 280.351562,23.7558594 C280.390625,23.8535156 280.449219,23.9479167 280.527344,24.0390625 C280.605469,24.1171875 280.696615,24.1757812 280.800781,24.2148438 C280.904948,24.2539062 281.015625,24.2734375 281.132812,24.2734375 L281.132812,24.2734375 L298.964844,24.2734375 Z M298.964844,31.0507812 C299.082031,31.0507812 299.192708,31.03125 299.296875,30.9921875 C299.401042,30.953125 299.492188,30.8945312 299.570312,30.8164062 C299.648438,30.7382812 299.707031,30.6471354 299.746094,30.5429688 C299.785156,30.4388021 299.804688,30.328125 299.804688,30.2109375 C299.804688,30.09375 299.785156,29.9830729 299.746094,29.8789062 C299.707031,29.7747396 299.648438,29.6835938 299.570312,29.6054688 C299.492188,29.5273438 299.401042,29.46875 299.296875,29.4296875 C299.192708,29.390625 299.082031,29.3710938 298.964844,29.3710938 L298.964844,29.3710938 L281.132812,29.3710938 C281.015625,29.3710938 280.904948,29.390625 280.800781,29.4296875 C280.696615,29.46875 280.605469,29.5273438 280.527344,29.6054688 C280.449219,29.6835938 280.390625,29.7747396 280.351562,29.8789062 C280.3125,29.9830729 280.292969,30.09375 280.292969,30.2109375 C280.292969,30.328125 280.3125,30.4388021 280.351562,30.5429688 C280.390625,30.6471354 280.449219,30.7382812 280.527344,30.8164062 C280.605469,30.8945312 280.696615,30.953125 280.800781,30.9921875 C280.904948,31.03125 281.015625,31.0507812 281.132812,31.0507812 L281.132812,31.0507812 L298.964844,31.0507812 Z M298.964844,37.8476562 C299.082031,37.8476562 299.192708,37.828125 299.296875,37.7890625 C299.401042,37.75 299.492188,37.6914062 299.570312,37.6132812 C299.648438,37.5221354 299.707031,37.4277344 299.746094,37.3300781 C299.785156,37.2324219 299.804688,37.1184896 299.804688,36.9882812 C299.804688,36.8710938 299.785156,36.7604167 299.746094,36.65625 C299.707031,36.5520833 299.648438,36.4609375 299.570312,36.3828125 C299.492188,36.3046875 299.401042,36.2460938 299.296875,36.2070312 C299.192708,36.1679688 299.082031,36.1484375 298.964844,36.1484375 L298.964844,36.1484375 L281.132812,36.1484375 C281.015625,36.1484375 280.904948,36.1679688 280.800781,36.2070312 C280.696615,36.2460938 280.605469,36.3046875 280.527344,36.3828125 C280.449219,36.4609375 280.390625,36.5520833 280.351562,36.65625 C280.3125,36.7604167 280.292969,36.8710938 280.292969,36.9882812 C280.292969,37.1184896 280.3125,37.2324219 280.351562,37.3300781 C280.390625,37.4277344 280.449219,37.5221354 280.527344,37.6132812 C280.605469,37.6914062 280.696615,37.75 280.800781,37.7890625 C280.904948,37.828125 281.015625,37.8476562 281.132812,37.8476562 L281.132812,37.8476562 L298.964844,37.8476562 Z" id="Menu"></path></g></g></g></svg>