<svg width="16px" height="15px" viewBox="0 0 16 15" version="1.1" xmlns="http://www.w3.org/2000/svg" xmlns:xlink="http://www.w3.org/1999/xlink">
                                <!-- Generator: sketchtool 62 (101010) - https://sketch.com -->
                                <title>1B4DD0FE-DC66-4382-88B8-DAA3D1DDA014</title>
                                <desc>Created with sketchtool.</desc>
                                <g id="Final-version" stroke="none" stroke-width="1" fill="none" fill-rule="evenodd">
                                    <g id="global-navigation-extended-menu-mobile" transform="translate(-282.000000, -23.000000)" fill="#FFFFFF" fill-rule="nonzero">
                                        <g id="header">
                                            <path d="M290.048828,31.3986559 L284.338112,37.1093718 C284.255248,37.1922363 284.163177,37.2566855 284.061899,37.3027213 C283.96062,37.3487572 283.854739,37.3717747 283.744253,37.3717747 C283.633767,37.3717747 283.527886,37.3487572 283.426607,37.3027213 C283.325329,37.2566855 283.233258,37.1922363 283.150394,37.1093718 C283.067529,37.0265073 283.00308,36.9344371 282.957044,36.8331582 C282.911008,36.7318794 282.887991,36.6259986 282.887991,36.5155126 C282.887991,36.4050266 282.911008,36.2991458 282.957044,36.197867 C283.00308,36.0965882 283.067529,36.0045179 283.150394,35.9216534 L288.86111,30.2109375 L283.150394,24.5002216 C283.067529,24.4173571 283.00308,24.3252868 282.957044,24.224008 C282.911008,24.1227292 282.887991,24.0168484 282.887991,23.9063624 C282.887991,23.7958764 282.911008,23.6899956 282.957044,23.5887168 C283.00308,23.4874379 283.067529,23.3953677 283.150394,23.3125032 C283.233258,23.2296387 283.325329,23.1651895 283.426607,23.1191537 C283.527886,23.0731178 283.633767,23.0501003 283.744253,23.0501003 C283.854739,23.0501003 283.96062,23.0731178 284.061899,23.1191537 C284.163177,23.1651895 284.255248,23.2296387 284.338112,23.3125032 L290.048828,29.0232191 L295.759544,23.3125032 C295.842409,23.2296387 295.934479,23.1651895 296.035758,23.1191537 C296.137036,23.0731178 296.242917,23.0501003 296.353403,23.0501003 C296.463889,23.0501003 296.56977,23.0731178 296.671049,23.1191537 C296.772328,23.1651895 296.864398,23.2296387 296.947262,23.3125032 C297.030127,23.3953677 297.094576,23.4874379 297.140612,23.5887168 C297.186648,23.6899956 297.209665,23.7958764 297.209665,23.9063624 C297.209665,24.0168484 297.186648,24.1227292 297.140612,24.224008 C297.094576,24.3252868 297.030127,24.4173571 296.947262,24.5002216 L291.236547,30.2109375 L296.947262,35.9216534 C297.030127,36.0045179 297.094576,36.0965882 297.140612,36.197867 C297.186648,36.2991458 297.209665,36.4050266 297.209665,36.5155126 C297.209665,36.6259986 297.186648,36.7318794 297.140612,36.8331582 C297.094576,36.9344371 297.030127,37.0265073 296.947262,37.1093718 C296.864398,37.1922363 296.772328,37.2566855 296.671049,37.3027213 C296.56977,37.3487572 296.463889,37.3717747 296.353403,37.3717747 C296.242917,37.3717747 296.137036,37.3487572 296.035758,37.3027213 C295.934479,37.2566855 295.842409,37.1922363 295.759544,37.1093718 L290.048828,31.3986559 L290.048828,31.3986559 Z" id="close"></path>
                                        </g>
                                    </g>
                                </g>
                            </svg>