<?xml version="1.0" encoding="UTF-8"?>
<svg width="44px" height="44px" viewBox="0 0 44 44" version="1.1" xmlns="http://www.w3.org/2000/svg" xmlns:xlink="http://www.w3.org/1999/xlink">
    <!-- Generator: sketchtool 61.1 (101010) - https://sketch.com -->
    <title>ABE7C193-1E4E-4DD7-A92D-623308A1519C</title>
    <desc>Created with sketchtool.</desc>
    <g id="Final-version" stroke="none" stroke-width="1" fill="none" fill-rule="evenodd">
        <g transform="translate(-1367.000000, -3807.000000)">
            <g id="Footer" transform="translate(0.000000, 3672.000000)">
                <g id="Group-8">
                    <g transform="translate(1309.000000, 49.735450)">
                        <g id="Group-6" transform="translate(0.000000, 85.264550)">
                            <g id="fb" transform="translate(58.000000, 0.000000)">
                                <rect id="Rectangle-Copy" fill="#333333" fill-rule="nonzero" x="-1.33392556e-12" y="0" width="44" height="44" rx="2.93333333"></rect>
                                <path d="M28.7498208,9.41802413 L28.7498208,13.524359 L26.1649376,13.524359 C24.139838,13.524359 23.7611609,14.4420626 23.7611609,15.764178 L23.7611609,18.7039404 L28.5851785,18.7039404 L27.9430738,23.3080128 L23.7611609,23.3080128 L23.7611609,35.1137255 L18.7231083,35.1137255 L18.7231083,23.3080128 L14.5247312,23.3080128 L14.5247312,18.7039404 L18.7231083,18.7039404 L18.7231083,15.3131033 C18.7231083,11.3778658 21.2750631,9.23137255 24.9959777,9.23137255 C26.7741139,9.23137255 28.3052867,9.35580694 28.7498208,9.41802413 Z" id="facebook---FontAwesome" fill="#FFFFFF"></path>
                            </g>
                        </g>
                    </g>
                </g>
            </g>
        </g>
    </g>
</svg>