<?xml version="1.0" encoding="UTF-8"?>
<svg width="199px" height="41px" viewBox="0 0 199 41" version="1.1" xmlns="http://www.w3.org/2000/svg" xmlns:xlink="http://www.w3.org/1999/xlink">
    <!-- Generator: sketchtool 61.1 (101010) - https://sketch.com -->
    <title>77F2ECFA-BDF3-426C-94D4-97B5E2D94113</title>
    <desc>Created with sketchtool.</desc>
    <g id="Final-version" stroke="none" stroke-width="1" fill="none" fill-rule="evenodd">
        <g transform="translate(-361.000000, -3715.000000)">
            <g id="Footer" transform="translate(0.000000, 3672.000000)">
                <g id="footer-logo">
                    <g transform="translate(360.000000, 43.000000)">
                        <g id="Group" transform="translate(0.446062, 0.702148)">
                            <path d="M38.7801987,26.8181347 C39.5100678,26.8181347 40.1017436,27.4098105 40.1017436,28.1396796 L40.1017436,38.7593764 C40.1017436,39.4892454 39.5100678,40.0809213 38.7801987,40.0809213 L28.2406865,40.0809213 C27.5108174,40.0809213 26.9191416,39.4892454 26.9191416,38.7593764 L26.9191416,28.1396796 C26.9191416,27.4098105 27.5108174,26.8181347 28.2406865,26.8181347 L38.7801987,26.8181347 Z M9.11934415,26.8181347 C9.84921325,26.8181347 10.4408891,27.4098105 10.4408891,28.1396796 L10.4408891,35.4436797 C10.4408891,36.1735488 9.84921325,36.7652246 9.11934415,36.7652246 L1.87548244,36.7652246 C1.14561334,36.7652246 0.553937536,36.1735488 0.553937536,35.4436797 L0.553937536,28.1396796 C0.553937536,27.4098105 1.14561334,26.8181347 1.87548244,26.8181347 L9.11934415,26.8181347 Z M22.3019462,26.8181347 C23.0318153,26.8181347 23.6234911,27.4098105 23.6234911,28.1396796 L23.6234911,35.4436797 C23.6234911,36.1735488 23.0318153,36.7652246 22.3019462,36.7652246 L15.0580845,36.7652246 C14.3282154,36.7652246 13.7365396,36.1735488 13.7365396,35.4436797 L13.7365396,28.1396796 C13.7365396,27.4098105 14.3282154,26.8181347 15.0580845,26.8181347 L22.3019462,26.8181347 Z M35.4845482,13.5553481 C36.2144173,13.5553481 36.8060931,14.1470239 36.8060931,14.876893 L36.8060931,22.1808931 C36.8060931,22.9107622 36.2144173,23.502438 35.4845482,23.502438 L28.2406865,23.502438 C27.5108174,23.502438 26.9191416,22.9107622 26.9191416,22.1808931 L26.9191416,14.876893 C26.9191416,14.1470239 27.5108174,13.5553481 28.2406865,13.5553481 L35.4845482,13.5553481 Z M9.11934415,13.5553481 C9.84921325,13.5553481 10.4408891,14.1470239 10.4408891,14.876893 L10.4408891,22.1808931 C10.4408891,22.9107622 9.84921325,23.502438 9.11934415,23.502438 L1.87548244,23.502438 C1.14561334,23.502438 0.553937536,22.9107622 0.553937536,22.1808931 L0.553937536,14.876893 C0.553937536,14.1470239 1.14561334,13.5553481 1.87548244,13.5553481 L9.11934415,13.5553481 Z M35.4845482,0.292561469 C36.2144173,0.292561469 36.8060931,0.884237277 36.8060931,1.61410637 L36.8060931,8.91810651 C36.8060931,9.64797561 36.2144173,10.2396514 35.4845482,10.2396514 L28.2406865,10.2396514 C27.5108174,10.2396514 26.9191416,9.64797561 26.9191416,8.91810651 L26.9191416,1.61410637 C26.9191416,0.884237277 27.5108174,0.292561469 28.2406865,0.292561469 L35.4845482,0.292561469 Z M22.3019462,0.292561469 C23.0318153,0.292561469 23.6234911,0.884237277 23.6234911,1.61410637 L23.6234911,8.91810651 C23.6234911,9.64797561 23.0318153,10.2396514 22.3019462,10.2396514 L15.0580845,10.2396514 C14.3282154,10.2396514 13.7365396,9.64797561 13.7365396,8.91810651 L13.7365396,1.61410637 C13.7365396,0.884237277 14.3282154,0.292561469 15.0580845,0.292561469 L22.3019462,0.292561469 Z M9.11934415,0.292561469 C9.84921325,0.292561469 10.4408891,0.884237277 10.4408891,1.61410637 L10.4408891,8.91810651 C10.4408891,9.64797561 9.84921325,10.2396514 9.11934415,10.2396514 L1.87548244,10.2396514 C1.14561334,10.2396514 0.553937536,9.64797561 0.553937536,8.91810651 L0.553937536,1.61410637 C0.553937536,0.884237277 1.14561334,0.292561469 1.87548244,0.292561469 L9.11934415,0.292561469 Z" id="Combined-Shape-Copy" fill="#3978FC"></path>
                            <path d="M49.8502778,18.4294221 C49.8502778,17.4081825 50.0414236,16.4499557 50.423721,15.5547131 C50.8060184,14.6594706 51.3300216,13.876974 51.9957463,13.2071999 C52.661471,12.5374258 53.4392368,12.0102353 54.3290669,11.6256126 C55.218897,11.2409899 56.1713304,11.0486814 57.1863959,11.0486814 C58.2014613,11.0486814 59.1538948,11.2409899 60.0437249,11.6256126 C60.9335549,12.0102353 61.7113207,12.5374258 62.3770454,13.2071999 C63.0427701,13.876974 63.5667733,14.6594706 63.9490707,15.5547131 C64.3313681,16.4499557 64.5225139,17.4081825 64.5225139,18.4294221 C64.5225139,19.2782447 64.3873936,20.0806353 64.1171489,20.8366179 C63.8469042,21.5926005 63.4810906,22.2822585 63.0196973,22.9056126 L64.2259053,24.1191576 L62.861506,25.491856 L61.6552979,24.278311 C61.0225299,24.7557737 60.3304502,25.1304437 59.5790381,25.4023322 C58.8276261,25.6742207 58.0300866,25.8101629 57.1863959,25.8101629 C56.1713304,25.8101629 55.218897,25.6178544 54.3290669,25.2332317 C53.4392368,24.8486089 52.661471,24.3214184 51.9957463,23.6516444 C51.3300216,22.9818703 50.8060184,22.1993737 50.423721,21.3041311 C50.0414236,20.4088886 49.8502778,19.4506618 49.8502778,18.4294221 Z M51.8276681,18.4294221 C51.8276681,19.1721419 51.9660841,19.8717469 52.2429201,20.5282581 C52.5197561,21.1847693 52.9020478,21.7583791 53.3898065,22.2491047 C53.8775652,22.7398302 54.447707,23.1244472 55.1002491,23.4029671 C55.7527912,23.681487 56.4481665,23.8207449 57.1863959,23.8207449 C57.7532506,23.8207449 58.2937319,23.7378533 58.8078559,23.5720676 C59.32198,23.406282 59.7965489,23.1708699 60.2315769,22.8658243 L59.0451427,21.6522793 L60.3897682,20.2795809 L61.5959762,21.4931258 C61.8991776,21.0687145 62.1331664,20.5978903 62.2979498,20.0806391 C62.4627331,19.5633878 62.5451236,19.0129877 62.5451236,18.4294221 C62.5451236,17.6867024 62.403412,16.9870974 62.1199847,16.3305862 C61.8365573,15.6740749 61.4542657,15.1037808 60.9730983,14.6196867 C60.4919309,14.1355926 59.9250847,13.7509756 59.2725426,13.4658243 C58.6200006,13.1806729 57.9246253,13.0380994 57.1863959,13.0380994 C56.4481665,13.0380994 55.7527912,13.1806729 55.1002491,13.4658243 C54.447707,13.7509756 53.8775652,14.1355926 53.3898065,14.6196867 C52.9020478,15.1037808 52.5197561,15.6740749 52.2429201,16.3305862 C51.9660841,16.9870974 51.8276681,17.6867024 51.8276681,18.4294221 Z M80.7371144,11.3669883 L82.7145047,11.3669883 L82.7145047,19.8816973 C82.7145047,20.7039942 82.5596107,21.4732281 82.249818,22.1894221 C81.9400253,22.9056162 81.5181862,23.5322766 80.9842882,24.0694221 C80.4503901,24.6065677 79.8242228,25.0309726 79.1057674,25.3426497 C78.387312,25.6543267 77.6260243,25.8101629 76.8218816,25.8101629 C76.0045562,25.8101629 75.2399729,25.6543267 74.5281088,25.3426497 C73.8162448,25.0309726 73.193373,24.6065677 72.659475,24.0694221 C72.1255769,23.5322766 71.7037379,22.9056162 71.3939452,22.1894221 C71.0841525,21.4732281 70.9292585,20.7039942 70.9292585,19.8816973 L70.9292585,11.3669883 L72.9066488,11.3669883 L72.9066488,19.8816973 C72.9066488,20.4254742 73.0088129,20.9360864 73.2131443,21.4135491 C73.4174756,21.8910118 73.6976031,22.3087854 74.0535352,22.6668825 C74.4094672,23.0249795 74.824715,23.3068109 75.2992911,23.5123851 C75.7738671,23.7179593 76.2813922,23.8207449 76.8218816,23.8207449 C77.362371,23.8207449 77.8698961,23.7179593 78.3444721,23.5123851 C78.8190482,23.3068109 79.234296,23.0249795 79.590228,22.6668825 C79.94616,22.3087854 80.2262875,21.8910118 80.4306189,21.4135491 C80.6349502,20.9360864 80.7371144,20.4254742 80.7371144,19.8816973 L80.7371144,11.3669883 Z M90.0308488,11.3669883 L92.0082391,11.3669883 L92.0082391,25.491856 L90.0308488,25.491856 L90.0308488,11.3669883 Z M111.030734,23.721274 C110.358418,24.3711538 109.587243,24.881766 108.717187,25.2531258 C107.847131,25.6244857 106.917767,25.8101629 105.929067,25.8101629 C104.914001,25.8101629 103.961568,25.6178544 103.071738,25.2332317 C102.181908,24.8486089 101.404142,24.3214184 100.738417,23.6516444 C100.072693,22.9818703 99.5486894,22.1993737 99.166392,21.3041311 C98.7840947,20.4088886 98.5929488,19.4506618 98.5929488,18.4294221 C98.5929488,17.4081825 98.7840947,16.4499557 99.166392,15.5547131 C99.5486894,14.6594706 100.072693,13.876974 100.738417,13.2071999 C101.404142,12.5374258 102.181908,12.0102353 103.071738,11.6256126 C103.961568,11.2409899 104.914001,11.0486814 105.929067,11.0486814 C106.93095,11.0486814 107.863609,11.2343586 108.727074,11.6057184 C109.590539,11.9770783 110.358418,12.4876905 111.030734,13.1375703 L109.646561,14.5500571 C109.158802,14.0858572 108.598547,13.7178186 107.965779,13.4459301 C107.333011,13.1740416 106.654114,13.0380994 105.929067,13.0380994 C105.190837,13.0380994 104.495462,13.1806729 103.84292,13.4658243 C103.190378,13.7509756 102.620236,14.1355926 102.132477,14.6196867 C101.644719,15.1037808 101.262427,15.6740749 100.985591,16.3305862 C100.708755,16.9870974 100.570339,17.6867024 100.570339,18.4294221 C100.570339,19.1721419 100.708755,19.8717469 100.985591,20.5282581 C101.262427,21.1847693 101.644719,21.7583791 102.132477,22.2491047 C102.620236,22.7398302 103.190378,23.1244472 103.84292,23.4029671 C104.495462,23.681487 105.190837,23.8207449 105.929067,23.8207449 C106.654114,23.8207449 107.333011,23.6848027 107.965779,23.4129142 C108.598547,23.1410257 109.158802,22.7729871 109.646561,22.3087872 L111.030734,23.721274 Z M121.135198,18.7676232 L119.256678,20.6973586 L119.256678,25.491856 L117.279287,25.491856 L117.279287,11.3669883 L119.256678,11.3669883 L119.256678,17.8325967 L125.564553,11.3669883 L128.332899,11.3669883 L122.519372,17.3352422 L128.332899,25.491856 L125.880935,25.491856 L121.135198,18.7676232 Z M134.205748,25.491856 L134.205748,11.3669883 L141.265032,11.3669883 C141.818704,11.3669883 142.339411,11.4730895 142.82717,11.6852952 C143.314929,11.8975008 143.740063,12.1859635 144.102587,12.550692 C144.46511,12.9154204 144.751829,13.343141 144.962751,13.8338666 C145.173674,14.3245921 145.279134,14.848467 145.279134,15.4055068 C145.279134,15.9227581 145.186857,16.4101606 145.002299,16.867729 C144.817742,17.3252974 144.567275,17.7331241 144.250891,18.0912211 C144.804563,18.4493181 145.249471,18.923458 145.585629,19.5136549 C145.921787,20.1038519 146.089864,20.7570376 146.089864,21.4732317 C146.089864,22.0302715 145.984404,22.5541463 145.773482,23.0448719 C145.562559,23.5355974 145.27584,23.9600024 144.913317,24.3180994 C144.550793,24.6761964 144.125659,24.9613435 143.6379,25.1735491 C143.150141,25.3857548 142.629434,25.491856 142.075762,25.491856 L134.205748,25.491856 Z M136.183139,19.4241311 L136.183139,23.502438 L142.075762,23.502438 C142.352598,23.502438 142.616247,23.4493874 142.866718,23.3432846 C143.117188,23.2371817 143.334699,23.0946082 143.519257,22.9155597 C143.703814,22.7365112 143.848821,22.5209931 143.954282,22.2689989 C144.059744,22.0170047 144.112474,21.7517516 144.112474,21.4732317 C144.112474,21.1947118 144.059744,20.9294587 143.954282,20.6774645 C143.848821,20.4254703 143.703814,20.2066365 143.519257,20.0209565 C143.334699,19.8352766 143.117188,19.6893874 142.866718,19.5832846 C142.616247,19.4771817 142.352598,19.4241311 142.075762,19.4241311 L136.183139,19.4241311 Z M141.265032,17.4347131 C141.541868,17.4347131 141.805517,17.3816625 142.055988,17.2755597 C142.306458,17.1694569 142.523969,17.0268834 142.708527,16.8478348 C142.893084,16.6687863 143.038091,16.4532682 143.143552,16.201274 C143.249014,15.9492798 143.301744,15.6840267 143.301744,15.4055068 C143.301744,15.1269869 143.249014,14.8617338 143.143552,14.6097396 C143.038091,14.3577454 142.893084,14.1389116 142.708527,13.9532317 C142.523969,13.7675517 142.306458,13.6216625 142.055988,13.5155597 C141.805517,13.4094569 141.541868,13.3564063 141.265032,13.3564063 L136.183139,13.3564063 L136.183139,17.4347131 L141.265032,17.4347131 Z M152.694348,11.3669883 L154.671738,11.3669883 L154.671738,23.502438 L162.976777,23.502438 L162.976777,25.491856 L152.694348,25.491856 L152.694348,11.3669883 Z M167.445679,18.4294221 C167.445679,17.4081825 167.636825,16.4499557 168.019122,15.5547131 C168.40142,14.6594706 168.925423,13.876974 169.591148,13.2071999 C170.256872,12.5374258 171.034638,12.0102353 171.924468,11.6256126 C172.814298,11.2409899 173.766732,11.0486814 174.781797,11.0486814 C175.796863,11.0486814 176.749296,11.2409899 177.639126,11.6256126 C178.528956,12.0102353 179.306722,12.5374258 179.972447,13.2071999 C180.638172,13.876974 181.162175,14.6594706 181.544472,15.5547131 C181.926769,16.4499557 182.117915,17.4081825 182.117915,18.4294221 C182.117915,19.4506618 181.926769,20.4088886 181.544472,21.3041311 C181.162175,22.1993737 180.638172,22.9818703 179.972447,23.6516444 C179.306722,24.3214184 178.528956,24.8486089 177.639126,25.2332317 C176.749296,25.6178544 175.796863,25.8101629 174.781797,25.8101629 C173.766732,25.8101629 172.814298,25.6178544 171.924468,25.2332317 C171.034638,24.8486089 170.256872,24.3214184 169.591148,23.6516444 C168.925423,22.9818703 168.40142,22.1993737 168.019122,21.3041311 C167.636825,20.4088886 167.445679,19.4506618 167.445679,18.4294221 Z M169.42307,18.4294221 C169.42307,19.1721419 169.561485,19.8717469 169.838322,20.5282581 C170.115158,21.1847693 170.497449,21.7583791 170.985208,22.2491047 C171.472967,22.7398302 172.043108,23.1244472 172.695651,23.4029671 C173.348193,23.681487 174.043568,23.8207449 174.781797,23.8207449 C175.520027,23.8207449 176.215402,23.681487 176.867944,23.4029671 C177.520486,23.1244472 178.087332,22.7398302 178.5685,22.2491047 C179.049667,21.7583791 179.431959,21.1847693 179.715386,20.5282581 C179.998813,19.8717469 180.140525,19.1721419 180.140525,18.4294221 C180.140525,17.6867024 179.998813,16.9870974 179.715386,16.3305862 C179.431959,15.6740749 179.049667,15.1037808 178.5685,14.6196867 C178.087332,14.1355926 177.520486,13.7509756 176.867944,13.4658243 C176.215402,13.1806729 175.520027,13.0380994 174.781797,13.0380994 C174.043568,13.0380994 173.348193,13.1806729 172.695651,13.4658243 C172.043108,13.7509756 171.472967,14.1355926 170.985208,14.6196867 C170.497449,15.1037808 170.115158,15.6740749 169.838322,16.3305862 C169.561485,16.9870974 169.42307,17.6867024 169.42307,18.4294221 Z M192.617858,16.6986285 L196.256256,11.3669883 L198.629124,11.3669883 L193.804292,18.4294221 L198.629124,25.491856 L196.256256,25.491856 L192.617858,20.18011 L188.97946,25.491856 L186.606591,25.491856 L191.431424,18.4294221 L186.606591,11.3669883 L188.97946,11.3669883 L192.617858,16.6986285 Z" id="QUICKBLOX" fill="#333333" fill-rule="nonzero"></path>
                        </g>
                    </g>
                </g>
            </g>
        </g>
    </g>
</svg>