<?xml version="1.0" encoding="UTF-8"?>
<svg width="40px" height="40px" viewBox="0 0 40 40" version="1.1" xmlns="http://www.w3.org/2000/svg" xmlns:xlink="http://www.w3.org/1999/xlink">
    <!-- Generator: sketchtool 62 (101010) - https://sketch.com -->
    <title>13ED5458-623F-45C1-B230-12CB110A1E2E</title>
    <desc>Created with sketchtool.</desc>
    <g id="Final-version" stroke="none" stroke-width="1" fill="none" fill-rule="evenodd">
        <g id="Blog-mobile" transform="translate(-140.000000, -4227.000000)" fill="#3978FC">
            <g id="footer" transform="translate(0.000000, 3345.000000)">
                <path d="M178.226261,908.525573 C178.95613,908.525573 179.547806,909.117249 179.547806,909.847118 L179.547806,920.466815 C179.547806,921.196684 178.95613,921.78836 178.226261,921.78836 L167.686749,921.78836 C166.95688,921.78836 166.365204,921.196684 166.365204,920.466815 L166.365204,909.847118 C166.365204,909.117249 166.95688,908.525573 167.686749,908.525573 L178.226261,908.525573 Z M148.565407,908.525573 C149.295276,908.525573 149.886952,909.117249 149.886952,909.847118 L149.886952,917.151118 C149.886952,917.880987 149.295276,918.472663 148.565407,918.472663 L141.321545,918.472663 C140.591676,918.472663 140,917.880987 140,917.151118 L140,909.847118 C140,909.117249 140.591676,908.525573 141.321545,908.525573 L148.565407,908.525573 Z M161.748009,908.525573 C162.477878,908.525573 163.069554,909.117249 163.069554,909.847118 L163.069554,917.151118 C163.069554,917.880987 162.477878,918.472663 161.748009,918.472663 L154.504147,918.472663 C153.774278,918.472663 153.182602,917.880987 153.182602,917.151118 L153.182602,909.847118 C153.182602,909.117249 153.774278,908.525573 154.504147,908.525573 L161.748009,908.525573 Z M174.930611,895.262787 C175.66048,895.262787 176.252156,895.854462 176.252156,896.584332 L176.252156,903.888332 C176.252156,904.618201 175.66048,905.209877 174.930611,905.209877 L167.686749,905.209877 C166.95688,905.209877 166.365204,904.618201 166.365204,903.888332 L166.365204,896.584332 C166.365204,895.854462 166.95688,895.262787 167.686749,895.262787 L174.930611,895.262787 Z M148.565407,895.262787 C149.295276,895.262787 149.886952,895.854462 149.886952,896.584332 L149.886952,903.888332 C149.886952,904.618201 149.295276,905.209877 148.565407,905.209877 L141.321545,905.209877 C140.591676,905.209877 140,904.618201 140,903.888332 L140,896.584332 C140,895.854462 140.591676,895.262787 141.321545,895.262787 L148.565407,895.262787 Z M174.930611,882 C175.66048,882 176.252156,882.591676 176.252156,883.321545 L176.252156,890.625545 C176.252156,891.355414 175.66048,891.94709 174.930611,891.94709 L167.686749,891.94709 C166.95688,891.94709 166.365204,891.355414 166.365204,890.625545 L166.365204,883.321545 C166.365204,882.591676 166.95688,882 167.686749,882 L174.930611,882 Z M161.748009,882 C162.477878,882 163.069554,882.591676 163.069554,883.321545 L163.069554,890.625545 C163.069554,891.355414 162.477878,891.94709 161.748009,891.94709 L154.504147,891.94709 C153.774278,891.94709 153.182602,891.355414 153.182602,890.625545 L153.182602,883.321545 C153.182602,882.591676 153.774278,882 154.504147,882 L161.748009,882 Z M148.565407,882 C149.295276,882 149.886952,882.591676 149.886952,883.321545 L149.886952,890.625545 C149.886952,891.355414 149.295276,891.94709 148.565407,891.94709 L141.321545,891.94709 C140.591676,891.94709 140,891.355414 140,890.625545 L140,883.321545 C140,882.591676 140.591676,882 141.321545,882 L148.565407,882 Z" id="footerlogo"></path>
            </g>
        </g>
    </g>
</svg>