<?xml version="1.0" encoding="UTF-8"?>
<svg width="44px" height="44px" viewBox="0 0 44 44" version="1.1" xmlns="http://www.w3.org/2000/svg" xmlns:xlink="http://www.w3.org/1999/xlink">
    <!-- Generator: sketchtool 61.1 (101010) - https://sketch.com -->
    <title>BE897AC7-1DA9-40D9-BC91-B614D7429399</title>
    <desc>Created with sketchtool.</desc>
    <g id="Final-version" stroke="none" stroke-width="1" fill="none" fill-rule="evenodd">
        <g transform="translate(-1367.000000, -3865.000000)">
            <g id="Footer" transform="translate(0.000000, 3672.000000)">
                <g id="Group-8">
                    <g transform="translate(1309.000000, 49.735450)">
                        <g id="Group-6" transform="translate(0.000000, 85.264550)">
                            <g id="git" transform="translate(58.000000, 58.000000)">
                                <rect id="Rectangle-Copy-4" fill="#333333" fill-rule="nonzero" x="0" y="0" width="44" height="44" rx="2.93333333"></rect>
                                <path d="M22.0315412,5.86666667 C30.955899,5.86666667 38.1964158,12.9978508 38.1964158,21.7874499 C38.1964158,28.8149831 33.5658527,34.7852768 27.1462086,36.8997559 C26.325336,37.0448672 26.0306638,36.5473427 26.0306638,36.132739 C26.0306638,35.6144843 26.0517118,33.8938788 26.0517118,31.7586696 C26.0517118,30.2660962 25.5465595,29.3125076 24.9572151,28.8149831 C28.5564255,28.4211096 32.345068,27.0736475 32.345068,20.9582424 C32.345068,19.2169068 31.7136275,17.8072541 30.6822749,16.687824 C30.850659,16.2732203 31.3979073,14.6562657 30.5138908,12.458866 C29.1668179,12.0442622 26.0727599,14.0965507 26.0727599,14.0965507 C24.788831,13.7441375 23.3996621,13.5575659 22.0315412,13.5575659 C20.6634203,13.5575659 19.2742514,13.7441375 17.9903226,14.0965507 C17.9903226,14.0965507 14.8962646,12.0442622 13.5491917,12.458866 C12.6651751,14.6562657 13.2124235,16.2732203 13.3808076,16.687824 C12.3494549,17.8072541 11.7180145,19.2169068 11.7180145,20.9582424 C11.7180145,27.0529173 15.4856089,28.4211096 19.0848193,28.8149831 C18.621763,29.2295868 18.2008027,29.9344132 18.0534666,30.9501923 C17.127354,31.3647961 14.7699765,32.0696224 13.3597596,29.6234604 C12.475743,28.1101568 10.8760939,27.9857757 10.8760939,27.9857757 C9.29749291,27.9650455 10.7708539,28.9600944 10.7708539,28.9600944 C11.8232546,29.4368887 12.559935,31.2818753 12.559935,31.2818753 C13.5070957,34.1219109 18.0113706,33.1683223 18.0113706,33.1683223 C18.0113706,34.4950542 18.0324186,35.7388654 18.0324186,36.132739 C18.0324186,36.5473427 17.7377464,37.0448672 16.9168739,36.8997559 C10.4972297,34.7852768 5.86666667,28.8149831 5.86666667,21.7874499 C5.86666667,12.9978508 13.1071834,5.86666667 22.0315412,5.86666667 Z M11.9916387,28.7320624 C11.9495426,28.8149831 11.8232546,28.8357133 11.7180145,28.7735227 C11.5917264,28.7113322 11.5285824,28.6076813 11.5706784,28.5247605 C11.6127744,28.4625699 11.7180145,28.4418398 11.8443026,28.4833001 C11.9705907,28.5454907 12.0337347,28.6491416 11.9916387,28.7320624 Z M12.6441271,29.4368887 C12.559935,29.5198095 12.4125989,29.4783491 12.3073589,29.3746982 C12.2021188,29.250317 12.1810708,29.1052057 12.2652628,29.0430152 C12.3494549,28.9600944 12.496791,29.0015548 12.6020311,29.1052057 C12.7072711,29.2295868 12.7283191,29.3746982 12.6441271,29.4368887 Z M13.2755675,30.3697471 C13.1913754,30.4319377 13.0229913,30.3697471 12.9177513,30.2246358 C12.8125112,30.0795245 12.8125112,29.913683 12.9177513,29.8514924 C13.0229913,29.7685717 13.1913754,29.8307623 13.2755675,29.9758736 C13.3808076,30.1209849 13.3808076,30.2868264 13.2755675,30.3697471 Z M14.1595841,31.2404149 C14.075392,31.3440659 13.8859599,31.3233357 13.7386238,31.1782244 C13.5912877,31.0538433 13.5491917,30.8672716 13.6544318,30.7843508 C13.7386238,30.6806999 13.9280559,30.7014301 14.075392,30.8465414 C14.2016801,30.9709225 14.2437761,31.1574942 14.1595841,31.2404149 Z M15.3593209,31.7586696 C15.3172248,31.8830507 15.1277927,31.9452413 14.9594086,31.8830507 C14.7699765,31.8415903 14.6436884,31.696479 14.6857844,31.5720979 C14.7278805,31.4477168 14.9173126,31.3855262 15.0856967,31.4269866 C15.2751288,31.4891772 15.4014169,31.6342885 15.3593209,31.7586696 Z M16.6853457,31.8623205 C16.6853457,31.9867017 16.5380096,32.0903526 16.3485775,32.0903526 C16.1380974,32.1110828 15.9907613,32.0074318 15.9907613,31.8623205 C15.9907613,31.7379394 16.1380974,31.6342885 16.3275295,31.6342885 C16.5169616,31.6135583 16.6853457,31.7172092 16.6853457,31.8623205 Z M17.9061305,31.6550187 C17.9271785,31.7793998 17.8008905,31.9037809 17.6114583,31.9452413 C17.4220262,31.9867017 17.2536421,31.9037809 17.2325941,31.7793998 C17.2115461,31.6342885 17.3378342,31.5099074 17.5272663,31.468447 C17.7166984,31.4477168 17.8850825,31.5306375 17.9061305,31.6550187 Z" id="github---FontAwesome-Copy" fill="#FFFFFF"></path>
                            </g>
                        </g>
                    </g>
                </g>
            </g>
        </g>
    </g>
</svg>