<?xml version="1.0" encoding="UTF-8"?>
<svg width="44px" height="44px" viewBox="0 0 44 44" version="1.1" xmlns="http://www.w3.org/2000/svg" xmlns:xlink="http://www.w3.org/1999/xlink">
    <!-- Generator: sketchtool 61.1 (101010) - https://sketch.com -->
    <title>663E45E7-92DE-424D-AB32-5D3C46C1962A</title>
    <desc>Created with sketchtool.</desc>
    <g id="Final-version" stroke="none" stroke-width="1" fill="none" fill-rule="evenodd">
        <g transform="translate(-1425.000000, -3865.000000)" fill-rule="nonzero">
            <g id="Footer" transform="translate(0.000000, 3672.000000)">
                <g id="Group-8">
                    <g transform="translate(1309.000000, 49.735450)">
                        <g id="Group-6" transform="translate(0.000000, 85.264550)">
                            <g id="instagram" transform="translate(116.000000, 58.000000)">
                                <rect id="Rectangle-Copy-3" fill="#333333" x="0" y="0" width="44" height="44" rx="2.93333333"></rect>
                                <path d="M27.4488707,22.4202933 C27.4488707,19.6506471 25.1899394,17.3917159 22.4202933,17.3917159 C19.6506471,17.3917159 17.3917159,19.6506471 17.3917159,22.4202933 C17.3917159,25.1899394 19.6506471,27.4488707 22.4202933,27.4488707 C25.1899394,27.4488707 27.4488707,25.1899394 27.4488707,22.4202933 Z M30.1595882,22.4202933 C30.1595882,26.7024412 26.7024412,30.1595882 22.4202933,30.1595882 C18.1381453,30.1595882 14.6809983,26.7024412 14.6809983,22.4202933 C14.6809983,18.1381453 18.1381453,14.6809983 22.4202933,14.6809983 C26.7024412,14.6809983 30.1595882,18.1381453 30.1595882,22.4202933 Z M32.2810193,14.3667123 C32.2810193,15.3684992 31.4756612,16.1738573 30.4738743,16.1738573 C29.4720874,16.1738573 28.6667293,15.3684992 28.6667293,14.3667123 C28.6667293,13.3649253 29.4720874,12.5595672 30.4738743,12.5595672 C31.4756612,12.5595672 32.2810193,13.3649253 32.2810193,14.3667123 Z M22.4202933,10.0452785 C20.2202907,10.0452785 15.5059993,9.86849261 13.5220684,10.6542078 C12.8345676,10.9292082 12.3238527,11.2631371 11.7934949,11.7934949 C11.2631371,12.3238527 10.9292082,12.8345676 10.6542078,13.5220684 C9.86849261,15.5059993 10.0452785,20.2202907 10.0452785,22.4202933 C10.0452785,24.6202959 9.86849261,29.3345872 10.6542078,31.3185182 C10.9292082,32.006019 11.2631371,32.5167339 11.7934949,33.0470917 C12.3238527,33.5774494 12.8345676,33.9113784 13.5220684,34.1863787 C15.5059993,34.972094 20.2202907,34.795308 22.4202933,34.795308 C24.6202959,34.795308 29.3345872,34.972094 31.3185182,34.1863787 C32.006019,33.9113784 32.5167339,33.5774494 33.0470917,33.0470917 C33.5774494,32.5167339 33.9113784,32.006019 34.1863787,31.3185182 C34.972094,29.3345872 34.795308,24.6202959 34.795308,22.4202933 C34.795308,20.2202907 34.972094,15.5059993 34.1863787,13.5220684 C33.9113784,12.8345676 33.5774494,12.3238527 33.0470917,11.7934949 C32.5167339,11.2631371 32.006019,10.9292082 31.3185182,10.6542078 C29.3345872,9.86849261 24.6202959,10.0452785 22.4202933,10.0452785 Z M37.5060256,22.4202933 C37.5060256,24.5024386 37.5256684,26.5649411 37.4078111,28.6470864 C37.2899539,31.0631607 36.7399532,33.2042347 34.972094,34.972094 C33.2042347,36.7399532 31.0631607,37.2899539 28.6470864,37.4078111 C26.5649411,37.5256684 24.5024386,37.5060256 22.4202933,37.5060256 C20.3381479,37.5060256 18.2756455,37.5256684 16.1935001,37.4078111 C13.7774258,37.2899539 11.6363519,36.7399532 9.86849261,34.972094 C8.10063336,33.2042347 7.5506327,31.0631607 7.43277542,28.6470864 C7.31491813,26.5649411 7.33456101,24.5024386 7.33456101,22.4202933 C7.33456101,20.3381479 7.31491813,18.2756455 7.43277542,16.1935001 C7.5506327,13.7774258 8.10063336,11.6363519 9.86849261,9.86849261 C11.6363519,8.10063336 13.7774258,7.5506327 16.1935001,7.43277542 C18.2756455,7.31491813 20.3381479,7.33456101 22.4202933,7.33456101 C24.5024386,7.33456101 26.5649411,7.31491813 28.6470864,7.43277542 C31.0631607,7.5506327 33.2042347,8.10063336 34.972094,9.86849261 C36.7399532,11.6363519 37.2899539,13.7774258 37.4078111,16.1935001 C37.5256684,18.2756455 37.5060256,20.3381479 37.5060256,22.4202933 Z" id="insta" fill="#FFFFFF"></path>
                            </g>
                        </g>
                    </g>
                </g>
            </g>
        </g>
    </g>
</svg>