<?xml version="1.0" encoding="UTF-8"?>
<svg width="44px" height="44px" viewBox="0 0 44 44" version="1.1" xmlns="http://www.w3.org/2000/svg" xmlns:xlink="http://www.w3.org/1999/xlink">
    <!-- Generator: sketchtool 61.1 (101010) - https://sketch.com -->
    <title>1847A776-31A5-4FCB-8A85-683372E84429</title>
    <desc>Created with sketchtool.</desc>
    <g id="Final-version" stroke="none" stroke-width="1" fill="none" fill-rule="evenodd">
        <g transform="translate(-1426.000000, -3807.000000)">
            <g id="Footer" transform="translate(0.000000, 3672.000000)">
                <g id="Group-8">
                    <g transform="translate(1309.000000, 49.735450)">
                        <g id="Group-6" transform="translate(0.000000, 85.264550)">
                            <g id="linkedin" transform="translate(117.000000, 0.000000)">
                                <rect id="Rectangle-Copy-5" fill="#333333" fill-rule="nonzero" x="0" y="0" width="44" height="44" rx="2.93333333"></rect>
                                <path d="M15.8494418,17.8356681 L15.8494418,33.5607843 L10.5706,33.5607843 L10.5706,17.8356681 L15.8494418,17.8356681 Z M16.1853681,12.9800823 C16.2013646,14.4875354 15.0496173,15.6934979 13.2100209,15.6934979 L13.1780279,15.6934979 C11.4024175,15.6934979 10.2666667,14.4875354 10.2666667,12.9800823 C10.2666667,11.4408933 11.450407,10.2666667 13.2420139,10.2666667 C15.0496173,10.2666667 16.1693716,11.4408933 16.1853681,12.9800823 Z M24.0236484,20.0707477 C24.7180881,18.9938932 25.9708277,17.4707058 28.7746061,17.4707058 C32.2458445,17.4707058 34.837276,19.7239515 34.837276,24.5478015 L34.837276,33.5607843 L29.5744306,33.5607843 L29.5744306,25.1507827 C29.5744306,23.0403483 28.8065991,21.5963669 26.9030167,21.5963669 C25.4473361,21.5963669 24.5835256,22.5643105 24.1996098,23.5005182 C24.0716379,23.8496127 24.0236484,24.3097826 24.0236484,24.7858204 L24.0236484,33.5607843 L18.7608031,33.5607843 C18.8247891,19.3113854 18.7608031,17.8356681 18.7608031,17.8356681 L24.0236484,17.8356681 L24.0236484,20.0707477 L24.0236484,20.0707477 Z" id="linkedin---FontAwesome" fill="#FFFFFF"></path>
                            </g>
                        </g>
                    </g>
                </g>
            </g>
        </g>
    </g>
</svg>