<?xml version="1.0" encoding="UTF-8"?>
<svg width="44px" height="44px" viewBox="0 0 44 44" version="1.1" xmlns="http://www.w3.org/2000/svg" xmlns:xlink="http://www.w3.org/1999/xlink">
    <!-- Generator: sketchtool 61.1 (101010) - https://sketch.com -->
    <title>0A3046C3-DB68-460B-B67B-B755ECE070B3</title>
    <desc>Created with sketchtool.</desc>
    <g id="Final-version" stroke="none" stroke-width="1" fill="none" fill-rule="evenodd">
        <g transform="translate(-1309.000000, -3865.000000)" fill-rule="nonzero">
            <g id="Footer" transform="translate(0.000000, 3672.000000)">
                <g id="Group-8">
                    <g transform="translate(1309.000000, 49.735450)">
                        <g id="Group-6" transform="translate(0.000000, 85.264550)">
                            <g id="medium" transform="translate(0.000000, 58.000000)">
                                <rect id="Rectangle-Copy-3" fill="#333333" x="0" y="0" width="44" height="44" rx="2.93333333"></rect>
                                <path d="M35.2,14.6669415 L33.7432695,14.6669415 C33.3639598,14.6669415 32.3714364,15.0942984 32.3714364,15.4581064 L32.3714364,28.6696706 C32.3714364,29.034384 33.3639598,29.333398 33.7432695,29.333398 L35.2,29.333398 L35.2,32.2666667 L25.7713818,32.2666667 L25.7713818,29.333398 L27.6575638,29.333398 L27.6575638,15.6442262 L27.3293234,15.6442262 L22.7905923,32.2666667 L19.2765213,32.2666667 L14.7964982,15.6442262 L14.4571818,15.6442262 L14.4571818,29.3333414 L16.3425454,29.3333414 L16.3425454,32.2666667 L8.8,32.2666667 L8.8,29.3333414 L9.84610259,29.3333414 C10.256785,29.3333414 10.6854181,29.034384 10.6854181,28.669614 L10.6854181,15.4581064 C10.6854181,15.0942418 10.2568396,14.6669415 9.84610259,14.6669415 L8.8,14.6669415 L8.8,11.7333333 L18.5749184,11.7333333 L21.7665325,23.4665212 L21.8524119,23.4665212 L25.0755078,11.7333333 L35.2,11.7333333 L35.2,14.6669415 Z" id="Path" fill="#FFFFFF"></path>
                            </g>
                        </g>
                    </g>
                </g>
            </g>
        </g>
    </g>
</svg>