<?xml version="1.0" encoding="UTF-8"?>
<svg width="199px" height="40px" viewBox="0 0 199 40" version="1.1" xmlns="http://www.w3.org/2000/svg" xmlns:xlink="http://www.w3.org/1999/xlink">
    <!-- Generator: Sketch 62 (91390) - https://sketch.com -->
    <title>qb-logo-blog-blue</title>
    <desc>Created with Sketch.</desc>
    <g id="Final-version" stroke="none" stroke-width="1" fill="none" fill-rule="evenodd">
        <g id="Blog-new---Sticky-header" transform="translate(-360.000000, -25.000000)" fill="#3978FC">
            <g id="qb-logo-blog-blue" transform="translate(360.000000, 25.000000)">
                <g id="logo_qb-3">
                    <rect id="Rectangle-4-Copy" x="26.3652041" y="13.3333333" width="9.88695152" height="10" rx="1.3215449"></rect>
                    <rect id="Rectangle-4-Copy-2" x="26.3652041" y="0" width="9.88695152" height="10" rx="1.3215449"></rect>
                    <rect id="Rectangle-4-Copy-3" x="13.182602" y="0" width="9.88695152" height="10" rx="1.3215449"></rect>
                    <rect id="Rectangle-4-Copy-4" x="0" y="0" width="9.88695152" height="10" rx="1.3215449"></rect>
                    <rect id="Rectangle-4-Copy-5" x="0" y="13.3333333" width="9.88695152" height="10" rx="1.3215449"></rect>
                    <rect id="Rectangle-4-Copy-6" x="0" y="26.6666667" width="9.88695152" height="10" rx="1.3215449"></rect>
                    <rect id="Rectangle-4-Copy-7" x="13.182602" y="26.6666667" width="9.88695152" height="10" rx="1.3215449"></rect>
                    <rect id="Rectangle-4" x="26.3652041" y="26.6666667" width="13.182602" height="13.3333333" rx="1.3215449"></rect>
                </g>
                <g id="Group" transform="translate(48.446062, 10.705882)" fill-rule="nonzero">
                    <path d="M0.850277831,7.52745098 C0.850277831,6.50077918 1.04142365,5.53745548 1.42372102,4.63745098 C1.80601839,3.73744648 2.33002158,2.95078768 2.99574631,2.27745098 C3.66147104,1.60411428 4.43923678,1.07411958 5.32906687,0.68745098 C6.21889696,0.30078238 7.17133043,0.10745098 8.18639586,0.10745098 C9.20146129,0.10745098 10.1538948,0.30078238 11.0437249,0.68745098 C11.9335549,1.07411958 12.7113207,1.60411428 13.3770454,2.27745098 C14.0427701,2.95078768 14.5667733,3.73744648 14.9490707,4.63745098 C15.3313681,5.53745548 15.5225139,6.50077918 15.5225139,7.52745098 C15.5225139,8.38078858 15.3873936,9.18744718 15.1171489,9.94745098 C14.8469042,10.7074548 14.4810906,11.4007812 14.0196973,12.027451 L15.2259053,13.247451 L13.861506,14.627451 L12.6552979,13.407451 C12.0225299,13.8874534 11.3304502,14.2641163 10.5790381,14.537451 C9.82762606,14.8107857 9.03008661,14.947451 8.18639586,14.947451 C7.17133043,14.947451 6.21889696,14.7541196 5.32906687,14.367451 C4.43923678,13.9807824 3.66147104,13.4507877 2.99574631,12.777451 C2.33002158,12.1041143 1.80601839,11.3174555 1.42372102,10.417451 C1.04142365,9.51744648 0.850277831,8.55412278 0.850277831,7.52745098 Z M2.82766814,7.52745098 C2.82766814,8.27412138 2.96608407,8.97744768 3.2429201,9.63745098 C3.51975613,10.2974543 3.90204776,10.8741152 4.38980648,11.367451 C4.87756519,11.8607868 5.44770703,12.2474496 6.10024909,12.527451 C6.75279115,12.8074524 7.44816646,12.947451 8.18639586,12.947451 C8.75325058,12.947451 9.29373186,12.8641185 9.80785591,12.697451 C10.32198,12.5307835 10.7965489,12.2941192 11.2315769,11.987451 L10.0451427,10.767451 L11.3897682,9.38745098 L12.5959762,10.607451 C12.8991776,10.1807822 13.1331664,9.70745358 13.2979498,9.18745098 C13.4627331,8.66744838 13.5451236,8.11412058 13.5451236,7.52745098 C13.5451236,6.78078058 13.403412,6.07745428 13.1199847,5.41745098 C12.8365573,4.75744768 12.4542657,4.18412008 11.9730983,3.69745098 C11.4919309,3.21078188 10.9250847,2.82411908 10.2725426,2.53745098 C9.62000057,2.25078288 8.92462527,2.10745098 8.18639586,2.10745098 C7.44816646,2.10745098 6.75279115,2.25078288 6.10024909,2.53745098 C5.44770703,2.82411908 4.87756519,3.21078188 4.38980648,3.69745098 C3.90204776,4.18412008 3.51975613,4.75744768 3.2429201,5.41745098 C2.96608407,6.07745428 2.82766814,6.78078058 2.82766814,7.52745098 Z M31.7371144,0.42745098 L33.7145047,0.42745098 L33.7145047,8.98745098 C33.7145047,9.81412178 33.5596107,10.5874474 33.249818,11.307451 C32.9400253,12.0274546 32.5181862,12.6574483 31.9842882,13.197451 C31.4503901,13.7374537 30.8242228,14.1641161 30.1057674,14.477451 C29.387312,14.7907859 28.6260243,14.947451 27.8218816,14.947451 C27.0045562,14.947451 26.2399729,14.7907859 25.5281088,14.477451 C24.8162448,14.1641161 24.193373,13.7374537 23.659475,13.197451 C23.1255769,12.6574483 22.7037379,12.0274546 22.3939452,11.307451 C22.0841525,10.5874474 21.9292585,9.81412178 21.9292585,8.98745098 L21.9292585,0.42745098 L23.9066488,0.42745098 L23.9066488,8.98745098 C23.9066488,9.53412038 24.0088129,10.0474486 24.2131443,10.527451 C24.4174756,11.0074534 24.6976031,11.427451 25.0535352,11.787451 C25.4094672,12.1474528 25.824715,12.4307833 26.2992911,12.637451 C26.7738671,12.8441187 27.2813922,12.947451 27.8218816,12.947451 C28.362371,12.947451 28.8698961,12.8441187 29.3444721,12.637451 C29.8190482,12.4307833 30.234296,12.1474528 30.590228,11.787451 C30.94616,11.427451 31.2262875,11.0074534 31.4306189,10.527451 C31.6349502,10.0474486 31.7371144,9.53412038 31.7371144,8.98745098 L31.7371144,0.42745098 Z M41.0308488,0.42745098 L43.0082391,0.42745098 L43.0082391,14.627451 L41.0308488,14.627451 L41.0308488,0.42745098 Z M62.0307339,12.847451 C61.3584178,13.5007876 60.5872433,14.0141158 59.7171872,14.387451 C58.8471311,14.7607862 57.917767,14.947451 56.9290669,14.947451 C55.9140014,14.947451 54.961568,14.7541196 54.0717379,14.367451 C53.1819078,13.9807824 52.4041421,13.4507877 51.7384173,12.777451 C51.0726926,12.1041143 50.5486894,11.3174555 50.166392,10.417451 C49.7840947,9.51744648 49.5929488,8.55412278 49.5929488,7.52745098 C49.5929488,6.50077918 49.7840947,5.53745548 50.166392,4.63745098 C50.5486894,3.73744648 51.0726926,2.95078768 51.7384173,2.27745098 C52.4041421,1.60411428 53.1819078,1.07411958 54.0717379,0.68745098 C54.961568,0.30078238 55.9140014,0.10745098 56.9290669,0.10745098 C57.9309496,0.10745098 58.8636094,0.29411578 59.7270742,0.66745098 C60.5905389,1.04078618 61.3584178,1.55411438 62.0307339,2.20745098 L60.6465606,3.62745098 C60.1588019,3.16078198 59.5985469,2.79078568 58.9657789,2.51745098 C58.3330108,2.24411628 57.6541136,2.10745098 56.9290669,2.10745098 C56.1908375,2.10745098 55.4954622,2.25078288 54.8429201,2.53745098 C54.190378,2.82411908 53.6202362,3.21078188 53.1324775,3.69745098 C52.6447188,4.18412008 52.2624271,4.75744768 51.9855911,5.41745098 C51.7087551,6.07745428 51.5703391,6.78078058 51.5703391,7.52745098 C51.5703391,8.27412138 51.7087551,8.97744768 51.9855911,9.63745098 C52.2624271,10.2974543 52.6447188,10.8741152 53.1324775,11.367451 C53.6202362,11.8607868 54.190378,12.2474496 54.8429201,12.527451 C55.4954622,12.8074524 56.1908375,12.947451 56.9290669,12.947451 C57.6541136,12.947451 58.3330108,12.8107857 58.9657789,12.537451 C59.5985469,12.2641163 60.1588019,11.89412 60.6465606,11.427451 L62.0307339,12.847451 Z M72.1351983,7.86745098 L70.2566775,9.80745098 L70.2566775,14.627451 L68.2792872,14.627451 L68.2792872,0.42745098 L70.2566775,0.42745098 L70.2566775,6.92745098 L76.5645526,0.42745098 L79.332899,0.42745098 L73.5193715,6.42745098 L79.332899,14.627451 L76.880935,14.627451 L72.1351983,7.86745098 Z M85.2057482,14.627451 L85.2057482,0.42745098 L92.2650316,0.42745098 C92.8187037,0.42745098 93.3394112,0.53411658 93.82717,0.74745098 C94.3149287,0.96078538 94.7400633,1.25078248 95.1025867,1.61745098 C95.4651101,1.98411948 95.7518288,2.41411518 95.9627515,2.90745098 C96.1736742,3.40078678 96.2791339,3.92745098 96.2791339,4.48745098 C96.2791339,5.00745358 96.1868566,5.49744868 96.0022993,5.95745098 C95.8177419,6.41745328 95.567275,6.82744918 95.250891,7.18745098 C95.804563,7.54745278 96.2494714,8.02411468 96.5856294,8.61745098 C96.9217875,9.21078728 97.089864,9.86744738 97.089864,10.587451 C97.089864,11.1474538 96.9844042,11.6741152 96.7734815,12.167451 C96.5625588,12.6607868 96.2758401,13.0874492 95.9133167,13.447451 C95.5507934,13.8074528 95.1256587,14.0941166 94.6379,14.307451 C94.1501413,14.5207854 93.6294337,14.627451 93.0757616,14.627451 L85.2057482,14.627451 Z M87.1831385,8.52745098 L87.1831385,12.627451 L93.0757616,12.627451 C93.3525977,12.627451 93.6162471,12.5741182 93.8667178,12.467451 C94.1171885,12.3607838 94.3346992,12.2174519 94.5192566,12.037451 C94.7038139,11.8574501 94.8488211,11.6407856 94.9542824,11.387451 C95.0597438,11.1341164 95.1124737,10.8674524 95.1124737,10.587451 C95.1124737,10.3074496 95.0597438,10.0407856 94.9542824,9.78745098 C94.8488211,9.53411638 94.7038139,9.31411858 94.5192566,9.12745098 C94.3346992,8.94078338 94.1171885,8.79411818 93.8667178,8.68745098 C93.6162471,8.58078378 93.3525977,8.52745098 93.0757616,8.52745098 L87.1831385,8.52745098 Z M92.2650316,6.52745098 C92.5418676,6.52745098 92.805517,6.47411818 93.0559877,6.36745098 C93.3064584,6.26078378 93.5239692,6.11745188 93.7085265,5.93745098 C93.8930839,5.75745008 94.0380911,5.54078558 94.1435524,5.28745098 C94.2490137,5.03411638 94.3017436,4.76745238 94.3017436,4.48745098 C94.3017436,4.20744958 94.2490137,3.94078558 94.1435524,3.68745098 C94.0380911,3.43411638 93.8930839,3.21411858 93.7085265,3.02745098 C93.5239692,2.84078338 93.3064584,2.69411818 93.0559877,2.58745098 C92.805517,2.48078378 92.5418676,2.42745098 92.2650316,2.42745098 L87.1831385,2.42745098 L87.1831385,6.52745098 L92.2650316,6.52745098 Z M103.694348,0.42745098 L105.671738,0.42745098 L105.671738,12.627451 L113.976777,12.627451 L113.976777,14.627451 L103.694348,14.627451 L103.694348,0.42745098 Z M118.445679,7.52745098 C118.445679,6.50077918 118.636825,5.53745548 119.019122,4.63745098 C119.40142,3.73744648 119.925423,2.95078768 120.591148,2.27745098 C121.256872,1.60411428 122.034638,1.07411958 122.924468,0.68745098 C123.814298,0.30078238 124.766732,0.10745098 125.781797,0.10745098 C126.796863,0.10745098 127.749296,0.30078238 128.639126,0.68745098 C129.528956,1.07411958 130.306722,1.60411428 130.972447,2.27745098 C131.638172,2.95078768 132.162175,3.73744648 132.544472,4.63745098 C132.926769,5.53745548 133.117915,6.50077918 133.117915,7.52745098 C133.117915,8.55412278 132.926769,9.51744648 132.544472,10.417451 C132.162175,11.3174555 131.638172,12.1041143 130.972447,12.777451 C130.306722,13.4507877 129.528956,13.9807824 128.639126,14.367451 C127.749296,14.7541196 126.796863,14.947451 125.781797,14.947451 C124.766732,14.947451 123.814298,14.7541196 122.924468,14.367451 C122.034638,13.9807824 121.256872,13.4507877 120.591148,12.777451 C119.925423,12.1041143 119.40142,11.3174555 119.019122,10.417451 C118.636825,9.51744648 118.445679,8.55412278 118.445679,7.52745098 Z M120.42307,7.52745098 C120.42307,8.27412138 120.561485,8.97744768 120.838322,9.63745098 C121.115158,10.2974543 121.497449,10.8741152 121.985208,11.367451 C122.472967,11.8607868 123.043108,12.2474496 123.695651,12.527451 C124.348193,12.8074524 125.043568,12.947451 125.781797,12.947451 C126.520027,12.947451 127.215402,12.8074524 127.867944,12.527451 C128.520486,12.2474496 129.087332,11.8607868 129.5685,11.367451 C130.049667,10.8741152 130.431959,10.2974543 130.715386,9.63745098 C130.998813,8.97744768 131.140525,8.27412138 131.140525,7.52745098 C131.140525,6.78078058 130.998813,6.07745428 130.715386,5.41745098 C130.431959,4.75744768 130.049667,4.18412008 129.5685,3.69745098 C129.087332,3.21078188 128.520486,2.82411908 127.867944,2.53745098 C127.215402,2.25078288 126.520027,2.10745098 125.781797,2.10745098 C125.043568,2.10745098 124.348193,2.25078288 123.695651,2.53745098 C123.043108,2.82411908 122.472967,3.21078188 121.985208,3.69745098 C121.497449,4.18412008 121.115158,4.75744768 120.838322,5.41745098 C120.561485,6.07745428 120.42307,6.78078058 120.42307,7.52745098 Z M143.617858,5.78745098 L147.256256,0.42745098 L149.629124,0.42745098 L144.804292,7.52745098 L149.629124,14.627451 L147.256256,14.627451 L143.617858,9.28745098 L139.97946,14.627451 L137.606591,14.627451 L142.431424,7.52745098 L137.606591,0.42745098 L139.97946,0.42745098 L143.617858,5.78745098 Z" id="QUICKBLOX"></path>
                </g>
            </g>
        </g>
    </g>
</svg>