<svg width="20px" height="16px" viewBox="0 0 20 16" version="1.1" xmlns="http://www.w3.org/2000/svg" xmlns:xlink="http://www.w3.org/1999/xlink">
                            <!-- Generator: sketchtool 62 (101010) - https://sketch.com -->
                            <title>D3F1AF90-B171-4BEA-81B5-CF7768BC8C8F</title>
                            <desc>Created with sketchtool.</desc>
                            <g id="Final-version" stroke="none" stroke-width="1" fill="none" fill-rule="evenodd">
                                <g id="900-global-sticky-header" transform="translate(-1010.000000, -32.000000)" fill="#333333" fill-rule="nonzero">
                                    <path d="M1028.96484,34.2734375 C1029.08203,34.2734375 1029.19271,34.2539062 1029.29688,34.2148438 C1029.40104,34.1757812 1029.49219,34.1171875 1029.57031,34.0390625 C1029.64844,33.9479167 1029.70703,33.8535156 1029.74609,33.7558594 C1029.78516,33.6582031 1029.80469,33.5442708 1029.80469,33.4140625 C1029.80469,33.296875 1029.78516,33.1861979 1029.74609,33.0820312 C1029.70703,32.9778646 1029.64844,32.8867188 1029.57031,32.8085938 C1029.49219,32.7304688 1029.40104,32.671875 1029.29688,32.6328125 C1029.19271,32.59375 1029.08203,32.5742188 1028.96484,32.5742188 L1011.13281,32.5742188 C1011.01562,32.5742188 1010.90495,32.59375 1010.80078,32.6328125 C1010.69661,32.671875 1010.60547,32.7304688 1010.52734,32.8085938 C1010.44922,32.8867188 1010.39062,32.9778646 1010.35156,33.0820312 C1010.3125,33.1861979 1010.29297,33.296875 1010.29297,33.4140625 C1010.29297,33.5442708 1010.3125,33.6582031 1010.35156,33.7558594 C1010.39062,33.8535156 1010.44922,33.9479167 1010.52734,34.0390625 C1010.60547,34.1171875 1010.69661,34.1757812 1010.80078,34.2148438 C1010.90495,34.2539062 1011.01562,34.2734375 1011.13281,34.2734375 L1028.96484,34.2734375 Z M1028.96484,41.0507812 C1029.08203,41.0507812 1029.19271,41.03125 1029.29688,40.9921875 C1029.40104,40.953125 1029.49219,40.8945312 1029.57031,40.8164062 C1029.64844,40.7382812 1029.70703,40.6471354 1029.74609,40.5429688 C1029.78516,40.4388021 1029.80469,40.328125 1029.80469,40.2109375 C1029.80469,40.09375 1029.78516,39.9830729 1029.74609,39.8789062 C1029.70703,39.7747396 1029.64844,39.6835938 1029.57031,39.6054688 C1029.49219,39.5273438 1029.40104,39.46875 1029.29688,39.4296875 C1029.19271,39.390625 1029.08203,39.3710938 1028.96484,39.3710938 L1011.13281,39.3710938 C1011.01562,39.3710938 1010.90495,39.390625 1010.80078,39.4296875 C1010.69661,39.46875 1010.60547,39.5273438 1010.52734,39.6054688 C1010.44922,39.6835938 1010.39062,39.7747396 1010.35156,39.8789062 C1010.3125,39.9830729 1010.29297,40.09375 1010.29297,40.2109375 C1010.29297,40.328125 1010.3125,40.4388021 1010.35156,40.5429688 C1010.39062,40.6471354 1010.44922,40.7382812 1010.52734,40.8164062 C1010.60547,40.8945312 1010.69661,40.953125 1010.80078,40.9921875 C1010.90495,41.03125 1011.01562,41.0507812 1011.13281,41.0507812 L1028.96484,41.0507812 Z M1028.96484,47.8476562 C1029.08203,47.8476562 1029.19271,47.828125 1029.29688,47.7890625 C1029.40104,47.75 1029.49219,47.6914062 1029.57031,47.6132812 C1029.64844,47.5221354 1029.70703,47.4277344 1029.74609,47.3300781 C1029.78516,47.2324219 1029.80469,47.1184896 1029.80469,46.9882812 C1029.80469,46.8710938 1029.78516,46.7604167 1029.74609,46.65625 C1029.70703,46.5520833 1029.64844,46.4609375 1029.57031,46.3828125 C1029.49219,46.3046875 1029.40104,46.2460938 1029.29688,46.2070312 C1029.19271,46.1679688 1029.08203,46.1484375 1028.96484,46.1484375 L1011.13281,46.1484375 C1011.01562,46.1484375 1010.90495,46.1679688 1010.80078,46.2070312 C1010.69661,46.2460938 1010.60547,46.3046875 1010.52734,46.3828125 C1010.44922,46.4609375 1010.39062,46.5520833 1010.35156,46.65625 C1010.3125,46.7604167 1010.29297,46.8710938 1010.29297,46.9882812 C1010.29297,47.1184896 1010.3125,47.2324219 1010.35156,47.3300781 C1010.39062,47.4277344 1010.44922,47.5221354 1010.52734,47.6132812 C1010.60547,47.6914062 1010.69661,47.75 1010.80078,47.7890625 C1010.90495,47.828125 1011.01562,47.8476562 1011.13281,47.8476562 L1028.96484,47.8476562 Z" id="menu"></path>
                                </g>
                            </g>
                        </svg>