<?xml version="1.0" encoding="UTF-8"?>
<svg width="50px" height="50px" viewBox="0 0 50 50" version="1.1" xmlns="http://www.w3.org/2000/svg" xmlns:xlink="http://www.w3.org/1999/xlink">
    <!-- Generator: sketchtool 62 (101010) - https://sketch.com -->
    <title>19BF500C-372E-486C-A492-84B5718FE8E2</title>
    <desc>Created with sketchtool.</desc>
    <g id="Final-version" stroke="none" stroke-width="1" fill="none" fill-rule="evenodd">
        <g transform="translate(-1830.000000, -3737.000000)" fill="#3978FC" fill-rule="nonzero">
            <g id="to-the-top-hover" transform="translate(1830.000000, 3737.000000)">
                <path d="M25,0 C38.8071187,0 50,11.1928813 50,25 C50,38.8071187 38.8071187,50 25,50 C11.1928813,50 0,38.8071187 0,25 C0,11.1928813 11.1928813,0 25,0 Z M25,3 C12.8497355,3 3,12.8497355 3,25 C3,37.1502645 12.8497355,47 25,47 C37.1502645,47 47,37.1502645 47,25 C47,12.8497355 37.1502645,3 25,3 Z" id="chat-messaging"></path>
                <path d="M26.5898607,14.3619708 C26.6723856,14.4299751 26.7504197,14.5031689 26.8234971,14.5810865 L26.9293374,14.7014476 L32.1576025,21.0460836 C32.684436,21.6854098 32.5932426,22.630769 31.9539164,23.1576025 C31.3545481,23.6515089 30.4862055,23.6022276 29.9459065,23.0673496 L29.8423975,22.9539164 L26.4999578,18.897238 L26.5,37.5 C26.5,38.3284271 25.8284271,39 25,39 C24.2203039,39 23.5795513,38.4051119 23.5068666,37.64446 L23.5,37.5 L23.4999578,18.896238 L20.1576025,22.9539164 C19.6636961,23.5532847 18.8019448,23.6708956 18.1693667,23.2491583 L18.0460836,23.1576025 C17.4467153,22.6636961 17.3291044,21.8019448 17.7508417,21.1693667 L17.8423975,21.0460836 L23.0706626,14.7014476 C23.9487184,13.6359039 25.5243171,13.483915 26.5898607,14.3619708 Z" id="Combined-Shape"></path>
            </g>
        </g>
    </g>
</svg>