<?xml version="1.0" encoding="UTF-8"?>
<svg width="44px" height="44px" viewBox="0 0 44 44" version="1.1" xmlns="http://www.w3.org/2000/svg" xmlns:xlink="http://www.w3.org/1999/xlink">
    <!-- Generator: sketchtool 61.1 (101010) - https://sketch.com -->
    <title>9C878634-2F00-47B7-8D78-B269270928B8</title>
    <desc>Created with sketchtool.</desc>
    <g id="Final-version" stroke="none" stroke-width="1" fill="none" fill-rule="evenodd">
        <g transform="translate(-1309.000000, -3807.000000)">
            <g id="Footer" transform="translate(0.000000, 3672.000000)">
                <g id="Group-8">
                    <g transform="translate(1309.000000, 49.735450)">
                        <g id="Group-6" transform="translate(0.000000, 85.264550)">
                            <g id="twitter">
                                <rect id="Rectangle" fill="#333333" fill-rule="nonzero" x="-1.33392556e-12" y="0" width="44" height="43.7671958" rx="2.93333333"></rect>
                                <path d="M34.916129,14.0312481 C34.2301476,15.0610644 33.3726707,15.9782446 32.39047,16.7184251 C32.4060604,16.9436975 32.4060604,17.1689698 32.4060604,17.3942421 C32.4060604,24.2650482 27.3391518,32.1817616 18.0784018,32.1817616 C15.2253425,32.1817616 12.5749595,31.3289449 10.3455197,29.8485839 C10.7508724,29.8968565 11.1406346,29.9129474 11.5615778,29.9129474 C13.9157415,29.9129474 16.0828194,29.0923125 17.8133635,27.6924059 C15.5995142,27.6441332 13.7442461,26.1476813 13.1050361,24.0880486 C13.4168459,24.1363212 13.7286556,24.168503 14.0560559,24.168503 C14.50818,24.168503 14.9603042,24.1041394 15.3812474,23.9915033 C13.0738551,23.5087768 11.343311,21.4169623 11.343311,18.8906941 C11.343311,18.8746032 11.343311,18.8424214 11.343311,18.8263305 C12.0137019,19.2125117 12.7932264,19.4538749 13.6195222,19.4860566 C12.2631498,18.5527856 11.3744919,16.9597884 11.3744919,15.1576097 C11.3744919,14.1921569 11.6239397,13.3071584 12.0604734,12.5347961 C14.539361,15.6886088 18.2654877,17.7482415 22.4437385,17.9735138 C22.3657861,17.5873327 22.3190146,17.1850607 22.3190146,16.7827887 C22.3190146,13.9186119 24.5640449,11.5854342 27.3547423,11.5854342 C28.8046577,11.5854342 30.1142587,12.2129785 31.0340975,13.226704 C32.1722031,13.0014317 33.2635373,12.5669779 34.2301476,11.9716153 C33.8559758,13.1784314 33.0608609,14.1921569 32.0162982,14.8357921 C33.02968,14.7231559 34.0118807,14.4335201 34.916129,14.0312481 Z" id="twitter---FontAwesome" fill="#FFFFFF"></path>
                            </g>
                        </g>
                    </g>
                </g>
            </g>
        </g>
    </g>
</svg>